PathFileType	3	(X/Y/Z)	walking_1__fused_aligned.trc
DataRate	CameraRate	NumFrames	NumMarkers	Units	OrigDataRate	OrigDataStartFrame	OrigNumFrames
100.0	100.0	12	19	mm	100.0	3816	6105
Frame#	Time	pelvis			neck			head			hip_left			hip_right			knee_left			knee_right			ankle_left			ankle_right			heel_left			heel_right			toe_left			toe_right			shoulder_left			shoulder_right			elbow_left			elbow_right			wrist_left			wrist_right			
		X1	Y1	Z1	X2	Y2	Z2	X3	Y3	Z3	X4	Y4	Z4	X5	Y5	Z5	X6	Y6	Z6	X7	Y7	Z7	X8	Y8	Z8	X9	Y9	Z9	X10	Y10	Z10	X11	Y11	Z11	X12	Y12	Z12	X13	Y13	Z13	X14	Y14	Z14	X15	Y15	Z15	X16	Y16	Z16	X17	Y17	Z17	X18	Y18	Z18	X19	Y19	Z19	
3816	38.15000	78.348173	946.145969	85.972990	51.941590	1515.848829	151.619975	50.322197	1623.708877	288.245317	156.431255	952.385279	83.404559	0.264793	939.906655	88.541511	157.493357	507.230233	121.842737	-50.211331	542.714946	288.070141	146.183928	88.123913	50.935974	-81.150125	213.858528	100.415537	141.784288	37.035973	15.696946	-79.247651	188.209188	54.535673	146.878726	33.328080	245.326228	-99.591956	94.083596	221.384742	232.655962	1468.918450	114.657603	-123.527048	1445.777452	120.318215	314.475527	1183.232933	88.652791	-171.839175	1152.392226	109.782273	357.193542	928.557678	151.514026	-187.235729	913.639563	206.053831
3817	38.16000	78.695459	946.200646	85.021638	51.496329	1515.925302	151.444894	49.193699	1623.820437	288.005178	156.807943	952.500681	82.660864	0.582636	939.900606	87.382515	157.811243	506.609485	115.361002	-50.522074	544.194327	292.465780	146.768810	87.809474	40.127875	-81.489424	212.316822	114.065231	142.458813	36.788517	4.454271	-79.542934	185.683505	69.068838	147.560961	32.346911	234.904148	-100.457861	95.925819	237.397434	232.655174	1469.297048	116.422439	-123.555558	1445.606261	118.183951	315.634899	1183.710359	93.285583	-171.192768	1151.971262	104.304213	357.019462	930.090639	160.731394	-189.006647	911.265163	195.554646
3818	38.17000	79.042745	946.255323	84.070286	51.051069	1516.001776	151.269814	48.065200	1623.931997	287.765040	157.184631	952.616083	81.917169	0.900478	939.894557	86.223518	158.129129	505.988737	108.879266	-50.832818	545.673708	296.861419	147.353693	87.495035	29.319775	-81.828724	210.775116	127.714926	143.133338	36.541060	-6.788404	-79.838216	183.157823	83.602003	148.243197	31.365741	224.482068	-101.323767	97.768042	253.410126	232.654385	1469.675646	118.187276	-123.584068	1445.435070	116.049688	316.794270	1184.187784	97.918376	-170.546361	1151.550297	98.826154	356.845383	931.623600	169.948763	-190.777565	908.890763	185.055461
3819	38.18000	79.390032	946.310000	83.118933	50.605808	1516.078250	151.094733	46.936702	1624.043557	287.524902	157.561319	952.731485	81.173474	1.218320	939.888508	85.064522	158.447015	505.367989	102.397531	-51.143562	547.153089	301.257057	147.938575	87.180595	18.511676	-82.168023	209.233410	141.364621	143.807863	36.293604	-18.031079	-80.133499	180.632140	98.135168	148.925433	30.384572	214.059988	-102.189672	99.610266	269.422818	232.653596	1470.054244	119.952112	-123.612578	1445.263879	113.915424	317.953642	1184.665209	102.551168	-169.899955	1151.129333	93.348094	356.671303	933.156561	179.166132	-192.548483	906.516364	174.556277
3820	38.19000	78.403842	946.126210	82.394441	49.049789	1515.855129	151.146178	44.762242	1623.813325	287.518474	156.595230	952.461774	80.420817	0.212028	939.790638	84.368194	157.593550	504.498392	97.402176	-52.085131	547.912988	303.276819	146.352341	87.769968	9.278370	-83.015236	205.785872	153.173875	142.086120	37.322083	-27.617090	-81.118883	175.834516	110.867917	147.447563	29.586738	203.809103	-102.443283	100.392894	284.754941	231.420991	1470.071054	121.577382	-124.757006	1444.911845	112.452637	317.623249	1184.954255	106.299036	-170.850566	1150.940662	89.055675	354.382262	934.819322	187.024626	-196.256715	904.999547	165.095878
3821	38.20000	77.417651	945.942419	81.669949	47.493770	1515.632008	151.197622	42.587783	1623.583093	287.512046	155.629141	952.192064	79.668160	-0.794264	939.692768	83.671865	156.740084	503.628795	92.406821	-53.026700	548.672888	305.296580	144.766107	88.359341	0.045065	-83.862449	202.338334	164.983129	140.364377	38.350561	-37.203101	-82.104268	171.036891	123.600667	145.969694	28.788905	193.558218	-102.696894	101.175523	300.087063	230.188387	1470.087865	123.202652	-125.901435	1444.559812	110.989850	317.292857	1185.243302	110.046904	-171.801177	1150.751991	84.763255	352.093222	936.482083	194.883121	-199.964947	903.482731	155.635480
3822	38.21000	76.431461	945.758629	80.945457	45.937752	1515.408887	151.249067	40.413323	1623.352861	287.505618	154.663052	951.922354	78.915504	-1.800557	939.594897	82.975537	155.886618	502.759197	87.411465	-53.968269	549.432787	307.316342	143.179873	88.948714	-9.188240	-84.709662	198.890796	176.792383	138.642634	39.379040	-46.789112	-83.089653	166.239267	136.333417	144.491824	27.991071	183.307333	-102.950505	101.958152	315.419185	228.955782	1470.104675	124.827922	-127.045863	1444.207778	109.527063	316.962465	1185.532348	113.794772	-172.751789	1150.563320	80.470835	349.804181	938.144844	202.741615	-203.673180	901.965915	146.175082
3823	38.22000	75.445271	945.574839	80.220965	44.381733	1515.185766	151.300511	38.238863	1623.122628	287.499190	153.696964	951.652644	78.162847	-2.806849	939.497027	82.279209	155.033153	501.889600	82.416110	-54.909838	550.192686	309.336104	141.593639	89.538087	-18.421545	-85.556875	195.443258	188.601636	136.920892	40.407518	-56.375123	-84.075038	161.441642	149.066166	143.013955	27.193238	173.056449	-103.204116	102.740781	330.751308	227.723178	1470.121486	126.453192	-128.190291	1443.855745	108.064276	316.632073	1185.821394	117.542640	-173.702400	1150.374649	76.178416	347.515141	939.807605	210.600110	-207.381412	900.449099	136.714683
3824	38.23000	74.459081	945.391048	79.496473	42.825714	1514.962645	151.351956	36.064403	1622.892396	287.492761	152.730875	951.382933	77.410190	-3.813142	939.399157	81.582881	154.179687	501.020003	77.420755	-55.851407	550.952586	311.355865	140.007405	90.127460	-27.654850	-86.404088	191.995720	200.410890	135.199149	41.435996	-65.961134	-85.060422	156.644018	161.798916	141.536085	26.395405	162.805564	-103.457727	103.523410	346.083430	226.490573	1470.138296	128.078462	-129.334719	1443.503711	106.601489	316.301680	1186.110440	121.290508	-174.653012	1150.185978	71.885996	345.226100	941.470366	218.458605	-211.089644	898.932283	127.254285
3825	38.24000	73.472891	945.207258	78.771981	41.269695	1514.739524	151.403401	33.889944	1622.662164	287.486333	151.764786	951.113223	76.657534	-4.819434	939.301286	80.886553	153.326221	500.150405	72.425400	-56.792976	551.712485	313.375627	138.421171	90.716833	-36.888156	-87.251301	188.548182	212.220144	133.477406	42.464475	-75.547145	-86.045807	151.846393	174.531665	140.058216	25.597571	152.554679	-103.711338	104.306038	361.415552	225.257969	1470.155107	129.703732	-130.479148	1443.151678	105.138702	315.971288	1186.399486	125.038376	-175.603623	1149.997307	67.593576	342.937060	943.133127	226.317099	-214.797876	897.415467	117.793887
3826	38.25000	72.486701	945.023468	78.047489	39.713677	1514.516403	151.454845	31.715484	1622.431932	287.479905	150.798697	950.843513	75.904877	-5.825726	939.203416	80.190224	152.472756	499.280808	67.430044	-57.734545	552.472385	315.395389	136.834937	91.306206	-46.121461	-88.098514	185.100643	224.029398	131.755663	43.492953	-85.133156	-87.031192	147.048769	187.264415	138.580346	24.799738	142.303794	-103.964949	105.088667	376.747675	224.025364	1470.171917	131.329002	-131.623576	1442.799644	103.675915	315.640896	1186.688532	128.786243	-176.554235	1149.808636	63.301157	340.648020	944.795888	234.175594	-218.506109	895.898651	108.333488
3827	38.26000	71.500510	944.839677	77.322997	38.157658	1514.293282	151.506290	29.541024	1622.201699	287.473477	149.832609	950.573803	75.152220	-6.832019	939.105546	79.493896	151.619290	498.411210	62.434689	-58.676114	553.232284	317.415150	135.248703	91.895579	-55.354766	-88.945727	181.653105	235.838652	130.033920	44.521432	-94.719167	-88.016577	142.251144	199.997164	137.102477	24.001904	132.052910	-104.218560	105.871296	392.079797	222.792759	1470.188728	132.954272	-132.768004	1442.447611	102.213128	315.310504	1186.977578	132.534111	-177.504846	1149.619965	59.008737	338.358979	946.458649	242.034088	-222.214341	894.381835	98.873090
